<?xml version="1.0" encoding="UTF-8" standalone="no"?>
<!-- Created with Inkscape (http://www.inkscape.org/) -->

<svg
   xmlns:dc="http://purl.org/dc/elements/1.1/"
   xmlns:cc="http://creativecommons.org/ns#"
   xmlns:rdf="http://www.w3.org/1999/02/22-rdf-syntax-ns#"
   xmlns:svg="http://www.w3.org/2000/svg"
   xmlns="http://www.w3.org/2000/svg"
   xmlns:sodipodi="http://sodipodi.sourceforge.net/DTD/sodipodi-0.dtd"
   xmlns:inkscape="http://www.inkscape.org/namespaces/inkscape"
   id="svg3902"
   version="1.1"
   inkscape:version="0.48.5 r10040"
   width="16"
   height="16"
   sodipodi:docname="closed-ltr.svg">
  <metadata
     id="metadata3908">
    <rdf:RDF>
      <cc:Work
         rdf:about="">
        <dc:format>image/svg+xml</dc:format>
        <dc:type
           rdf:resource="http://purl.org/dc/dcmitype/StillImage" />
        <dc:title></dc:title>
      </cc:Work>
    </rdf:RDF>
  </metadata>
  <defs
     id="defs3906" />
  <sodipodi:namedview
     pagecolor="#ffffff"
     bordercolor="#666666"
     borderopacity="1"
     objecttolerance="10"
     gridtolerance="10"
     guidetolerance="10"
     inkscape:pageopacity="0"
     inkscape:pageshadow="2"
     inkscape:window-width="1366"
     inkscape:window-height="705"
     id="namedview3904"
     showgrid="false"
     inkscape:zoom="14.75"
     inkscape:cx="8"
     inkscape:cy="8"
     inkscape:window-x="-8"
     inkscape:window-y="-8"
     inkscape:window-maximized="1"
     inkscape:current-layer="g3940" />
  <g
     id="g3940">
    <path
       style="fill:#777777"
       d="M 6.2972556,13.21162 8.9686936,10.423239 6.2570741,7.7116195 C 4.3223605,5.776906 3.9867319,5 5.0856361,5 5.9327359,5 7.8368497,6.2640451 9.317,7.8089892 l 2.691182,2.8089888 -2.8088096,2.691011 C 5.398278,16.950669 2.7985841,16.863446 6.2972556,13.21162 z"
       id="path3946"
       inkscape:connector-curvature="0" />
    <path
       style="fill:#6e6e6e"
       d="M 6.2972556,13.21162 8.9686936,10.423239 6.2570741,7.7116195 C 4.3030466,5.7575921 3.9793315,5 5.0984132,5 6.7956112,5 11,9.0181278 11,10.640137 11,12.091406 6.6234717,16 4.9984576,16 4.1454639,16 4.6371555,14.944391 6.2972556,13.21162 z"
       id="path3944"
       inkscape:connector-curvature="0" />
    <path
       style="fill:#656565"
       d="M 6.825686,13.685549 C 9.539201,10.797144 9.5331108,10.237502 6.7536337,7.0644512 4.9542966,5.0103285 5.1541118,5.0852642 7.7577249,7.4410108 L 11.008182,10.382022 8.317,13.191011 C 6.8368497,14.735955 5.4065673,16 5.1385948,16 4.8706222,16 5.6298133,14.958497 6.825686,13.685549 z"
       id="path3942"
       inkscape:connector-curvature="0" />
  </g>
</svg>
