<?xml version="1.0" encoding="UTF-8" standalone="no"?>
<!-- Created with Inkscape (http://www.inkscape.org/) -->

<svg
   xmlns:dc="http://purl.org/dc/elements/1.1/"
   xmlns:cc="http://creativecommons.org/ns#"
   xmlns:rdf="http://www.w3.org/1999/02/22-rdf-syntax-ns#"
   xmlns:svg="http://www.w3.org/2000/svg"
   xmlns="http://www.w3.org/2000/svg"
   xmlns:sodipodi="http://sodipodi.sourceforge.net/DTD/sodipodi-0.dtd"
   xmlns:inkscape="http://www.inkscape.org/namespaces/inkscape"
   id="svg2985"
   version="1.1"
   inkscape:version="0.48.5 r10040"
   width="26"
   height="40"
   sodipodi:docname="uploadlogo.svg">
  <metadata
     id="metadata2991">
    <rdf:RDF>
      <cc:Work
         rdf:about="">
        <dc:format>image/svg+xml</dc:format>
        <dc:type
           rdf:resource="http://purl.org/dc/dcmitype/StillImage" />
        <dc:title />
      </cc:Work>
    </rdf:RDF>
  </metadata>
  <defs
     id="defs2989" />
  <sodipodi:namedview
     pagecolor="#ffffff"
     bordercolor="#666666"
     borderopacity="1"
     objecttolerance="10"
     gridtolerance="10"
     guidetolerance="10"
     inkscape:pageopacity="0"
     inkscape:pageshadow="2"
     inkscape:window-width="1366"
     inkscape:window-height="705"
     id="namedview2987"
     showgrid="false"
     inkscape:zoom="12.95"
     inkscape:cx="13"
     inkscape:cy="15.667704"
     inkscape:window-x="-8"
     inkscape:window-y="-8"
     inkscape:window-maximized="1"
     inkscape:current-layer="svg2985" />
  <path
     style="fill:#ffffff"
     d="M 3.6736487,29.135119 C -2.1539453,23.423119 -0.82803125,12.236876 6.0923817,8.729178 15.638772,3.8904693 26,9.711877 26,19.914181 26,31.603607 12.064165,37.359203 3.6736487,29.135119 z M 20.511765,26.713457 C 29.839647,17.582256 15.735239,3.5842143 6.2148717,12.524381 c -3.839359,3.605377 -4.661386,7.32455 -2.572535,11.639162 3.287285,6.790027 11.3006313,8.001291 16.8694283,2.549914 z m -8.424328,-2.535351 c 0,-3.025929 -0.212283,-3.35573 -1.490632,-2.315839 -2.3952343,1.948436 -1.9205663,-2.238832 0.496877,-4.383192 1.917954,-1.701296 2.057064,-1.701296 3.975018,0 2.417444,2.14436 2.892111,6.331628 0.496878,4.383192 -1.278349,-1.039891 -1.490632,-0.71009 -1.490632,2.315839 0,1.940629 -0.44719,3.528416 -0.993755,3.528416 -0.546565,0 -0.993754,-1.587787 -0.993754,-3.528416 z M 9.1061737,14.069924 c 0,-0.535723 1.7887573,-0.974042 3.9750173,-0.974042 2.18626,0 3.975018,0.438319 3.975018,0.974042 0,0.535724 -1.788758,0.974043 -3.975018,0.974043 -2.18626,0 -3.9750173,-0.438319 -3.9750173,-0.974043 z"
     id="path3025"
     inkscape:connector-curvature="0" />
</svg>
