<?xml version="1.0" encoding="UTF-8" standalone="no"?>
<!-- Created with Inkscape (http://www.inkscape.org/) -->

<svg
   xmlns:dc="http://purl.org/dc/elements/1.1/"
   xmlns:cc="http://creativecommons.org/ns#"
   xmlns:rdf="http://www.w3.org/1999/02/22-rdf-syntax-ns#"
   xmlns:svg="http://www.w3.org/2000/svg"
   xmlns="http://www.w3.org/2000/svg"
   xmlns:sodipodi="http://sodipodi.sourceforge.net/DTD/sodipodi-0.dtd"
   xmlns:inkscape="http://www.inkscape.org/namespaces/inkscape"
   id="svg2985"
   version="1.1"
   inkscape:version="0.48.5 r10040"
   width="26"
   height="40"
   sodipodi:docname="uploadlogo.svg">
  <metadata
     id="metadata2991">
    <rdf:RDF>
      <cc:Work
         rdf:about="">
        <dc:format>image/svg+xml</dc:format>
        <dc:type
           rdf:resource="http://purl.org/dc/dcmitype/StillImage" />
        <dc:title></dc:title>
      </cc:Work>
    </rdf:RDF>
  </metadata>
  <defs
     id="defs2989" />
  <sodipodi:namedview
     pagecolor="#ffffff"
     bordercolor="#666666"
     borderopacity="1"
     objecttolerance="10"
     gridtolerance="10"
     guidetolerance="10"
     inkscape:pageopacity="0"
     inkscape:pageshadow="2"
     inkscape:window-width="1366"
     inkscape:window-height="705"
     id="namedview2987"
     showgrid="false"
     inkscape:zoom="12.95"
     inkscape:cx="13"
     inkscape:cy="15.667704"
     inkscape:window-x="-8"
     inkscape:window-y="-8"
     inkscape:window-maximized="1"
     inkscape:current-layer="svg2985" />
  <path
     style="fill:#ffffff"
     d="M 12.082993,33 C 7.674368,33 6.638622,32.571956 3.533333,29.466667 0.428044,26.361378 0,25.325632 0,20.917007 0,18.158027 0.682617,14.580644 1.516927,12.967267 2.351237,11.35389 4.35389,9.351237 5.967267,8.5169272 7.580644,7.6826174 10.745374,7.0000003 13,7.0000003 c 2.254626,0 5.419356,0.6826171 7.032733,1.5169269 1.613377,0.8343098 3.61603,2.8369628 4.45034,4.4503398 C 25.317383,14.580644 26,17.745374 26,20 c 0,2.254626 -0.682617,5.419356 -1.516927,7.032733 -0.83431,1.613377 -2.836963,3.61603 -4.45034,4.45034 C 18.419356,32.317383 14.841973,33 12.082993,33 z M 14.5,30.494417 c 1.65,-0.297258 4.339773,-1.878534 5.977273,-3.513947 2.312969,-2.310021 2.977272,-3.867536 2.977272,-6.98047 0,-3.180691 -0.664791,-4.671784 -3.223776,-7.230769 -2.546681,-2.546682 -4.055828,-3.2237762 -7.185332,-3.2237762 -2.998635,0 -4.68914,0.6970692 -6.95491,2.8678142 -1.646344,1.577298 -3.271339,4.133478 -3.6111,5.680399 -0.378685,1.724142 0.01697,4.15016 1.022398,6.268935 0.902079,1.900992 3.070702,4.179934 4.81916,5.064316 1.891132,0.956548 4.394375,1.389012 6.179015,1.067498 z M 13,28 C 12.45,28 12,26.3699 12,24.377555 12,21.270987 11.786383,20.932397 10.5,22 9.25311,23.034827 9,22.912901 9,21.277432 9,20.195331 9.9,18.495486 11,17.5 c 1.930008,-1.746633 2.069992,-1.746633 4,0 1.1,0.995486 2,2.695331 2,3.777432 C 17,22.912901 16.74689,23.034827 15.5,22 14.213617,20.932397 14,21.270987 14,24.377555 14,26.3699 13.55,28 13,28 z m 0,-13 c -2.2,0 -4,-0.45 -4,-1 0,-0.55 1.8,-1 4,-1 2.2,0 4,0.45 4,1 0,0.55 -1.8,1 -4,1 z"
     id="path3011"
     inkscape:connector-curvature="0" />
</svg>
