<?xml version="1.0" encoding="UTF-8" standalone="no"?>
<!-- Generator: Adobe Illustrator 18.0.0, SVG Export Plug-In . SVG Version: 6.00 Build 0)  -->

<svg
   xmlns:dc="http://purl.org/dc/elements/1.1/"
   xmlns:cc="http://creativecommons.org/ns#"
   xmlns:rdf="http://www.w3.org/1999/02/22-rdf-syntax-ns#"
   xmlns:svg="http://www.w3.org/2000/svg"
   xmlns="http://www.w3.org/2000/svg"
   xmlns:sodipodi="http://sodipodi.sourceforge.net/DTD/sodipodi-0.dtd"
   xmlns:inkscape="http://www.inkscape.org/namespaces/inkscape"
   version="1.1"
   id="Layer_1"
   x="0px"
   y="0px"
   viewBox="0 0 612 792"
   enable-background="new 0 0 612 792"
   xml:space="preserve"
   inkscape:version="0.48.5 r10040"
   width="24"
   height="22"
   sodipodi:docname="user-icon.svg"><metadata
   id="metadata6082"><rdf:RDF><cc:Work
       rdf:about=""><dc:format>image/svg+xml</dc:format><dc:type
         rdf:resource="http://purl.org/dc/dcmitype/StillImage" /><dc:title></dc:title></cc:Work></rdf:RDF></metadata><defs
   id="defs6080" /><sodipodi:namedview
   pagecolor="#ffffff"
   bordercolor="#666666"
   borderopacity="1"
   objecttolerance="10"
   gridtolerance="10"
   guidetolerance="10"
   inkscape:pageopacity="0"
   inkscape:pageshadow="2"
   inkscape:window-width="1366"
   inkscape:window-height="705"
   id="namedview6078"
   showgrid="false"
   inkscape:zoom="8.7165024"
   inkscape:cx="5.1804601"
   inkscape:cy="20.029586"
   inkscape:window-x="-8"
   inkscape:window-y="-8"
   inkscape:window-maximized="1"
   inkscape:current-layer="Layer_1" />
<g
   id="g6066"
   transform="matrix(47.634902,0,0,47.647843,-17387.924,-18829.686)">
	<g
   id="g6068">
		<path
   d="m 380.4,410.3 c -0.3,0.5 0.7,0.47316 -0.7,0.37316 -1.1,0 0.83461,0.60676 -0.26539,0.60676 -4.6,-0.1 -8.95318,0.0734 -13.55318,-0.0266 6.46934,-18.04804 -5.54394,-7.38971 4.31857,-8.15328 1.8,0.7 3.6,1.2 5.4,0 2.5,0 3.2,1.9 3.9,3.8 0.3,1 -0.1,2.4 0.9,3.4 z"
   id="path6070"
   inkscape:connector-curvature="0"
   style="fill:#fdfdfd;fill-opacity:1"
   sodipodi:nodetypes="ccccccccc" />
		<path
   d="m 380.4867,411.24732 c -1.07902,0.1 -0.73938,0.36831 -1.35515,-1.52113 -0.5,-1.9 -1.53155,-6.02619 -3.93155,-5.92619 -0.3,-0.2 -0.5,-0.5 -0.6,-0.8 -0.1,-0.6 -0.1,-1.2 -0.1,-1.8 0,-1.2 -0.4,-2.3 -1.8,-2.3 -1.8,0 -1.7,1.4 -1.6,2.6 0,0.5 0.1,1 0.1,1.5 -0.1,0.3 -0.3,0.6 -0.5,0.9 -4.6,0 -2.79472,8.09457 -5.2,7.4 0,-5.9 0,-11.07336 0,-16.07336 4.4133,0 9.15789,-0.0656 13.5,-0.0867 1.3867,0 1.94681,-0.06 1.5,1.76004 0.23352,4.4 0.33352,9.84732 -0.0133,14.34732 z"
   id="path6072"
   inkscape:connector-curvature="0"
   style="fill:#474747"
   sodipodi:nodetypes="ccccsscccccccc" />
		<path
   d="m 370.6,403.7 c 0,-0.3 0,-0.7 0.1,-1 1.5,-0.4 2.9,-0.3 4.4,-0.1 0,0.4 0.1,0.7 0.1,1.1 -1.5,1.7 -3,1.7 -4.6,0 z"
   id="path6074"
   style="fill:#474747;fill-opacity:1"
   inkscape:connector-curvature="0" />
		<path
   d="m 375.1,402.6 c -1.4,1.1 -2.9,1 -4.4,0.1 -1,-1.7 -1.3,-3.5 0.4,-4.9 0.9,-0.8 2.2,-0.7 3.1,0 1.7,1.2 1.7,3 0.9,4.8 z"
   id="path6076"
   style="fill:#fdfdfd;fill-opacity:1"
   inkscape:connector-curvature="0" />
	</g>
</g>
</svg>